<mxfile host="app.diagrams.net" modified="2024-02-16T13:31:12.092Z" agent="Mozilla/5.0 (X11; Ubuntu; Linux x86_64; rv:122.0) Gecko/20100101 Firefox/122.0" etag="IdUuoTpc9Ev2YOH-qTVA" version="23.1.5" type="device">
  <diagram name="Page-1" id="geBbzpSJ_tKh2wbrHSAM">
    <mxGraphModel dx="1434" dy="735" grid="1" gridSize="10" guides="1" tooltips="1" connect="1" arrows="1" fold="1" page="1" pageScale="1" pageWidth="850" pageHeight="1100" math="0" shadow="0">
      <root>
        <mxCell id="0" />
        <mxCell id="1" parent="0" />
      </root>
    </mxGraphModel>
  </diagram>
</mxfile>
